TITLE ""
FILE "Disc6Track08.mp3" MP3
  TRACK 01 AUDIO
    TITLE "Disc6Track08_01"
    INDEX 01 00:00:00
  TRACK 02 AUDIO
    TITLE "Disc6Track08_02"
    INDEX 01 00:00:73
  TRACK 03 AUDIO
    TITLE "Disc6Track08_03"
    INDEX 01 00:02:17
  TRACK 04 AUDIO
    TITLE "Disc6Track08_04"
    INDEX 01 00:03:26
  TRACK 05 AUDIO
    TITLE "Disc6Track08_05"
    INDEX 01 00:08:45
  TRACK 06 AUDIO
    TITLE "Disc6Track08_06"
    INDEX 01 00:08:74
  TRACK 07 AUDIO
    TITLE "Disc6Track08_07"
    INDEX 01 00:10:19
  TRACK 08 AUDIO
    TITLE "Disc6Track08_08"
    INDEX 01 00:12:13
  TRACK 09 AUDIO
    TITLE "Disc6Track08_09"
    INDEX 01 00:13:27
  TRACK 10 AUDIO
    TITLE "Disc6Track08_10"
    INDEX 01 00:16:21
  TRACK 11 AUDIO
    TITLE "Disc6Track08_11"
    INDEX 01 00:16:52
  TRACK 12 AUDIO
    TITLE "Disc6Track08_12"
    INDEX 01 00:17:70
  TRACK 13 AUDIO
    TITLE "Disc6Track08_13"
    INDEX 01 00:20:21
  TRACK 14 AUDIO
    TITLE "Disc6Track08_14"
    INDEX 01 00:21:34
  TRACK 15 AUDIO
    TITLE "Disc6Track08_15"
    INDEX 01 00:25:51
  TRACK 16 AUDIO
    TITLE "Disc6Track08_16"
    INDEX 01 00:26:02
  TRACK 17 AUDIO
    TITLE "Disc6Track08_17"
    INDEX 01 00:27:21
  TRACK 18 AUDIO
    TITLE "Disc6Track08_18"
    INDEX 01 00:29:14
  TRACK 19 AUDIO
    TITLE "Disc6Track08_19"
    INDEX 01 00:30:33
  TRACK 20 AUDIO
    TITLE "Disc6Track08_20"
    INDEX 01 00:34:35
  TRACK 21 AUDIO
    TITLE "Disc6Track08_21"
    INDEX 01 00:34:66
  TRACK 22 AUDIO
    TITLE "Disc6Track08_22"
    INDEX 01 00:36:16
  TRACK 23 AUDIO
    TITLE "Disc6Track08_23"
    INDEX 01 00:37:47
  TRACK 24 AUDIO
    TITLE "Disc6Track08_24"
    INDEX 01 00:38:72
  TRACK 25 AUDIO
    TITLE "Disc6Track08_25"
    INDEX 01 00:42:67
  TRACK 26 AUDIO
    TITLE "Disc6Track08_26"
    INDEX 01 00:43:22
  TRACK 27 AUDIO
    TITLE "Disc6Track08_27"
    INDEX 01 00:44:43
  TRACK 28 AUDIO
    TITLE "Disc6Track08_28"
    INDEX 01 00:46:36
  TRACK 29 AUDIO
    TITLE "Disc6Track08_29"
    INDEX 01 00:47:57
  TRACK 30 AUDIO
    TITLE "Disc6Track08_30"
    INDEX 01 00:49:56
  TRACK 31 AUDIO
    TITLE "Disc6Track08_31"
    INDEX 01 00:50:12
  TRACK 32 AUDIO
    TITLE "Disc6Track08_32"
    INDEX 01 00:51:35
  TRACK 33 AUDIO
    TITLE "Disc6Track08_33"
    INDEX 01 00:52:54
  TRACK 34 AUDIO
    TITLE "Disc6Track08_34"
    INDEX 01 00:54:00
  TRACK 35 AUDIO
    TITLE "Disc6Track08_35"
    INDEX 01 00:56:58
  TRACK 36 AUDIO
    TITLE "Disc6Track08_36"
    INDEX 01 00:57:14
  TRACK 37 AUDIO
    TITLE "Disc6Track08_37"
    INDEX 01 00:58:27
  TRACK 38 AUDIO
    TITLE "Disc6Track08_38"
    INDEX 01 01:01:33
  TRACK 39 AUDIO
    TITLE "Disc6Track08_39"
    INDEX 01 01:02:45
  TRACK 40 AUDIO
    TITLE "Disc6Track08_40"
    INDEX 01 01:05:49
  TRACK 41 AUDIO
    TITLE "Disc6Track08_41"
    INDEX 01 01:06:03
  TRACK 42 AUDIO
    TITLE "Disc6Track08_42"
    INDEX 01 01:07:26
  TRACK 43 AUDIO
    TITLE "Disc6Track08_43"
    INDEX 01 01:08:47
  TRACK 44 AUDIO
    TITLE "Disc6Track08_44"
    INDEX 01 01:09:72
  TRACK 45 AUDIO
    TITLE "Disc6Track08_45"
    INDEX 01 01:10:32
  TRACK 46 AUDIO
    TITLE "Disc6Track08_46"
    INDEX 01 01:11:52
  TRACK 47 AUDIO
    TITLE "Disc6Track08_47"
    INDEX 01 01:13:72
  TRACK 48 AUDIO
    TITLE "Disc6Track08_48"
    INDEX 01 01:15:14
  TRACK 49 AUDIO
    TITLE "Disc6Track08_49"
    INDEX 01 01:17:19
  TRACK 50 AUDIO
    TITLE "Disc6Track08_50"
    INDEX 01 01:17:48
  TRACK 51 AUDIO
    TITLE "Disc6Track08_51"
    INDEX 01 01:18:61
  TRACK 52 AUDIO
    TITLE "Disc6Track08_52"
    INDEX 01 01:20:07
  TRACK 53 AUDIO
    TITLE "Disc6Track08_53"
    INDEX 01 01:21:21
  TRACK 54 AUDIO
    TITLE "Disc6Track08_54"
    INDEX 01 01:21:58
  TRACK 55 AUDIO
    TITLE "Disc6Track08_55"
    INDEX 01 01:22:73
  TRACK 56 AUDIO
    TITLE "Disc6Track08_56"
    INDEX 01 01:24:09
  TRACK 57 AUDIO
    TITLE "Disc6Track08_57"
    INDEX 01 01:25:24
  TRACK 58 AUDIO
    TITLE "Disc6Track08_58"
    INDEX 01 01:27:19
